<?xml version="1.0" encoding="utf-8"?>
<!-- Generator: Adobe Illustrator 25.2.0, SVG Export Plug-In . SVG Version: 6.00 Build 0)  -->
<svg version="1.1" id="Layer_1" xmlns="http://www.w3.org/2000/svg" xmlns:xlink="http://www.w3.org/1999/xlink" x="0px" y="0px"
	 viewBox="0 0 1080 1080" style="enable-background:new 0 0 1080 1080;" xml:space="preserve">
<style type="text/css">
	.st0{fill:#FFFFFF;}
</style>
<g>
	<g>
		<g>
			<polygon class="st0" points="727.24,619.06 727.24,621.91 680.39,700.79 680.39,748.33 638.55,748.33 638.55,701.02 
				598.88,633.99 598.88,655.31 564.68,655.31 564.68,748.33 522.84,748.33 522.84,655.31 488.64,655.31 488.64,619.06 
				638.32,619.06 659.53,662.6 680.62,619.06 			"/>
			<rect x="429.37" y="619.06" class="st0" width="41.84" height="129.27"/>
			<polygon class="st0" points="411.92,619.06 411.92,655.31 377.61,655.31 377.61,748.33 335.77,748.33 335.77,655.31 
				301.57,655.31 301.57,619.06 			"/>
			<path class="st0" d="M363.93,474.28h-62.36v128.93h62.36c38.07,0,66.57-22.69,66.57-64.29
				C430.51,497.08,402.01,474.51,363.93,474.28z M361.99,567.19h-18.7V510.3h18.7c15.39,0,25.42,10.49,25.42,28.61
				C387.41,556.82,377.38,567.19,361.99,567.19z"/>
			<polygon class="st0" points="488.53,509.62 488.53,521.13 542.22,521.13 542.22,554.88 488.53,554.88 488.53,567.42 
				556.24,567.42 556.24,604.01 448.06,604.01 448.06,473.03 556.24,473.03 556.24,509.62 			"/>
			<polygon class="st0" points="703.76,473.25 703.76,603.21 667.39,603.21 615.75,540.17 615.75,603.21 573.69,603.21 
				573.69,473.25 610.05,473.25 661.69,536.3 661.69,473.25 			"/>
			<path class="st0" d="M761.55,333.72v124.71c0,0.68-0.57,1.14-1.25,1.14h-38.64c-0.68,0-1.25-0.46-1.25-1.14v-44.35
				c0-0.68-0.57-1.25-1.25-1.25h-42.41c-0.68,0-1.25,0.57-1.25,1.25v44.35c0,0.68-0.57,1.14-1.25,1.14h-38.65
				c-0.68,0-1.14-0.46-1.14-1.14V333.72c0-0.68,0.46-1.25,1.14-1.25h38.65c0.68,0,1.25,0.57,1.25,1.25v42.41
				c0,0.68,0.57,1.25,1.25,1.25h42.41c0.68,0,1.25-0.57,1.25-1.25v-42.41c0-0.68,0.57-1.25,1.25-1.25h38.64
				C760.98,332.47,761.55,333.04,761.55,333.72z"/>
			<path class="st0" d="M622.93,384.11v57.91c0,0.57-0.23,0.91-0.57,1.25c-12.31,9.8-37.05,18.58-56.77,18.58
				c-38.53,0-69.54-24.97-69.54-67.03c0-42.41,31.01-67.49,69.54-67.49c20.63,0,38.3,6.73,51.18,16.07c0.68,0.46,0.8,1.37,0.46,2.05
				l-17.56,29.3c-0.46,0.8-1.37,0.91-2.05,0.46c-8.66-5.93-19.15-9.12-31.01-9.12c-15.62,0-26.9,10.26-26.9,28.73
				c0,18.01,11.29,28.16,28.84,28.16c4.45,0,10.37-1.03,16.19-2.74c0.68-0.11,1.03-0.8,1.03-1.37v-8.89H561.6
				c-0.91,0-1.48-0.57-1.48-1.48v-24.4c0-0.8,0.57-1.48,1.48-1.48h59.85C622.25,382.63,622.93,383.31,622.93,384.11z"/>
			<path class="st0" d="M486.48,334.29v123.46c0,1.14-0.91,1.94-2.05,1.94h-36.37c-1.14,0-1.94-0.8-1.94-1.94V334.29
				c0-1.03,0.8-1.94,1.94-1.94h36.37C485.57,332.35,486.48,333.27,486.48,334.29z"/>
			<path class="st0" d="M428.57,333.04v124.49c0,1.48-0.57,2.05-1.37,2.05h-38.42c-0.68,0-1.25-0.57-1.25-1.25V414.2
				c0-0.68-0.68-1.37-1.37-1.37h-42.29c-0.68,0-1.25,0.57-1.25,1.25v44.23c0,0.68-0.57,1.25-1.25,1.25h-38.42
				c-0.8,0-1.37-0.57-1.37-1.25V333.84c0-0.8,0.57-1.37,1.37-1.37h38.42c0.68,0,1.25,0.57,1.25,1.37v41.38
				c0,0.8,0.68,1.37,1.37,1.37h42.18c0.68,0,1.37-0.57,1.37-1.37v-41.38c0-0.8,0.57-1.37,1.25-1.37h38.42
				C428,332.47,428.57,333.04,428.57,333.04z"/>
			<polygon class="st0" points="846.6,264.3 846.6,536.87 805.56,536.87 805.56,305.45 275.47,305.45 275.47,774.55 589.08,774.55 
				589.08,815.7 233.4,815.7 233.4,264.3 			"/>
		</g>
	</g>
</g>
</svg>
